<svg viewBox="0 0 72 72" fill="none" xmlns="http://www.w3.org/2000/svg">
<g id="logo-parreira-animated">
<rect id="rect-9" class="rect-9" x="47.3203" y="47.188" width="5" height="24" transform="rotate(-134.699 47.3203 47.188)" fill="url(#paint0_linear_314_26)"/>
<rect id="rect-8" class="rect-8" x="51.4902" y="37.6728" width="5" height="24" transform="rotate(-174 51.4902 37.6728)" fill="url(#paint1_linear_314_26)"/>
<rect id="rect-7" class="rect-7" x="48.6768" y="27.7704" width="5" height="24" transform="rotate(146.677 48.6768 27.7704)" fill="url(#paint2_linear_314_26)"/>
<rect id="rect-6" class="rect-6" x="40.1748" y="21.933" width="5" height="24" transform="rotate(107.369 40.1748 21.933)" fill="url(#paint3_linear_314_26)"/>
<rect id="rect-5" class="rect-5" x="29.9404" y="22.6419" width="5" height="24" transform="rotate(67.8084 29.9404 22.6419)" fill="url(#paint4_linear_314_26)"/>
<rect id="rect-4" class="rect-4" x="22.4619" y="29.8195" width="5" height="24" transform="rotate(28.5507 22.4619 29.8195)" fill="url(#paint5_linear_314_26)"/>
<rect id="rect-3" class="rect-3" x="21.3076" y="40.043" width="5" height="24" transform="rotate(-10.7311 21.3076 40.043)" fill="url(#paint6_linear_314_26)"/>
<rect id="rect-2" class="rect-2" x="26.8057" y="48.7498" width="5" height="24" transform="rotate(-50.2257 26.8057 48.7498)" fill="url(#paint7_linear_314_26)"/>
<rect id="rect-1" class="rect-1" x="36.6084" y="51.9194" width="5" height="24" transform="rotate(-89.477 36.6084 51.9194)" fill="url(#paint8_linear_314_26)"/>
</g>
<defs>
<linearGradient id="paint0_linear_314_26" x1="49.8203" y1="47.188" x2="49.8203" y2="71.188" gradientUnits="userSpaceOnUse">
<stop stop-color="#22BE83" stop-opacity="0.2"/>
<stop offset="0.361522" stop-color="#22BE83"/>
</linearGradient>
<linearGradient id="paint1_linear_314_26" x1="53.9902" y1="37.6728" x2="53.9902" y2="61.6728" gradientUnits="userSpaceOnUse">
<stop stop-color="#22BE83" stop-opacity="0.2"/>
<stop offset="0.361522" stop-color="#22BE83"/>
</linearGradient>
<linearGradient id="paint2_linear_314_26" x1="51.1768" y1="27.7704" x2="51.1768" y2="51.7704" gradientUnits="userSpaceOnUse">
<stop stop-color="#22BE83" stop-opacity="0.2"/>
<stop offset="0.361522" stop-color="#22BE83"/>
</linearGradient>
<linearGradient id="paint3_linear_314_26" x1="42.6748" y1="21.933" x2="42.6748" y2="45.933" gradientUnits="userSpaceOnUse">
<stop stop-color="#22BE83" stop-opacity="0.2"/>
<stop offset="0.361522" stop-color="#22BE83"/>
</linearGradient>
<linearGradient id="paint4_linear_314_26" x1="32.4404" y1="22.6419" x2="32.4404" y2="46.6419" gradientUnits="userSpaceOnUse">
<stop stop-color="#22BE83" stop-opacity="0.2"/>
<stop offset="0.361522" stop-color="#22BE83"/>
</linearGradient>
<linearGradient id="paint5_linear_314_26" x1="24.9619" y1="29.8195" x2="24.9619" y2="53.8195" gradientUnits="userSpaceOnUse">
<stop stop-color="#22BE83" stop-opacity="0.2"/>
<stop offset="0.361522" stop-color="#22BE83"/>
</linearGradient>
<linearGradient id="paint6_linear_314_26" x1="23.8076" y1="40.043" x2="23.8076" y2="64.043" gradientUnits="userSpaceOnUse">
<stop stop-color="#22BE83" stop-opacity="0.2"/>
<stop offset="0.361522" stop-color="#22BE83"/>
</linearGradient>
<linearGradient id="paint7_linear_314_26" x1="29.3057" y1="48.7498" x2="29.3057" y2="72.7498" gradientUnits="userSpaceOnUse">
<stop stop-color="#22BE83" stop-opacity="0.2"/>
<stop offset="0.361522" stop-color="#22BE83"/>
</linearGradient>
<linearGradient id="paint8_linear_314_26" x1="39.1084" y1="51.9194" x2="39.1084" y2="75.9194" gradientUnits="userSpaceOnUse">
<stop stop-color="#22BE83" stop-opacity="0.2"/>
<stop offset="0.361522" stop-color="#22BE83"/>
</linearGradient>
</defs>
</svg>
